<svg width="200" height="200" viewBox="0 0 200 200" fill="none" xmlns="http://www.w3.org/2000/svg">
<mask id="mask0_203_3993" style="mask-type:alpha" maskUnits="userSpaceOnUse" x="0" y="0" width="200" height="200">
<rect width="200" height="200" rx="48" fill="#C4C4C4"/>
</mask>
<g mask="url(#mask0_203_3993)">
<rect width="200" height="200" rx="48" fill="#212121"/>
<g opacity="0.2">
<circle cx="4" cy="4" r="3" fill="#91909A"/>
<circle cx="36" cy="4" r="3" fill="#91909A"/>
<circle cx="68" cy="4" r="3" fill="#91909A"/>
<circle cx="100" cy="4" r="3" fill="#91909A"/>
<circle cx="132" cy="4" r="3" fill="#91909A"/>
<circle cx="164" cy="4" r="3" fill="#91909A"/>
<circle cx="196" cy="4" r="3" fill="#91909A"/>
<circle cx="4" cy="36" r="3" fill="#91909A"/>
<circle cx="36" cy="36" r="3" fill="#91909A"/>
<circle cx="68" cy="36" r="3" fill="#91909A"/>
<circle cx="100" cy="36" r="3" fill="#91909A"/>
<circle cx="132" cy="36" r="3" fill="#91909A"/>
<circle cx="164" cy="36" r="3" fill="#91909A"/>
<circle cx="196" cy="36" r="3" fill="#91909A"/>
<circle cx="4" cy="68" r="3" fill="#91909A"/>
<circle cx="36" cy="68" r="3" fill="#91909A"/>
<circle cx="68" cy="68" r="3" fill="#91909A"/>
<circle cx="100" cy="68" r="3" fill="#91909A"/>
<circle cx="132" cy="68" r="3" fill="#91909A"/>
<circle cx="164" cy="68" r="3" fill="#91909A"/>
<circle cx="196" cy="68" r="3" fill="#91909A"/>
<circle cx="4" cy="100" r="3" fill="#91909A"/>
<circle cx="36" cy="100" r="3" fill="#91909A"/>
<circle cx="68" cy="100" r="3" fill="#91909A"/>
<circle cx="100" cy="100" r="3" fill="#91909A"/>
<circle cx="132" cy="100" r="3" fill="#91909A"/>
<circle cx="164" cy="100" r="3" fill="#91909A"/>
<circle cx="196" cy="100" r="3" fill="#91909A"/>
<circle cx="4" cy="132" r="3" fill="#91909A"/>
<circle cx="36" cy="132" r="3" fill="#91909A"/>
<circle cx="68" cy="132" r="3" fill="#91909A"/>
<circle cx="100" cy="132" r="3" fill="#91909A"/>
<circle cx="132" cy="132" r="3" fill="#91909A"/>
<circle cx="164" cy="132" r="3" fill="#91909A"/>
<circle cx="196" cy="132" r="3" fill="#91909A"/>
<circle cx="4" cy="164" r="3" fill="#91909A"/>
<circle cx="36" cy="164" r="3" fill="#91909A"/>
<circle cx="68" cy="164" r="3" fill="#91909A"/>
<circle cx="100" cy="164" r="3" fill="#91909A"/>
<circle cx="132" cy="164" r="3" fill="#91909A"/>
<circle cx="164" cy="164" r="3" fill="#91909A"/>
<circle cx="196" cy="164" r="3" fill="#91909A"/>
<circle cx="4" cy="196" r="3" fill="#91909A"/>
<circle cx="36" cy="196" r="3" fill="#91909A"/>
<circle cx="68" cy="196" r="3" fill="#91909A"/>
<circle cx="100" cy="196" r="3" fill="#91909A"/>
<circle cx="132" cy="196" r="3" fill="#91909A"/>
<circle cx="164" cy="196" r="3" fill="#91909A"/>
<circle cx="196" cy="196" r="3" fill="#91909A"/>
</g>
<g filter="url(#filter0_d_203_3993)">
<rect x="34" y="48" width="133" height="103" rx="16" fill="#2E2E2E"/>
<path fill-rule="evenodd" clip-rule="evenodd" d="M97.93 48.7747C97.7378 49.1442 97.465 49.5352 97.1113 49.9477C96.7575 50.3602 96.3558 50.7534 95.906 51.1272C95.4563 51.5011 94.9934 51.8169 94.5174 52.0747C94.0414 52.3325 93.5895 52.4915 93.1615 52.5517C92.8035 52.6118 92.5262 52.7428 92.3297 52.9448C92.1332 53.1467 92.0349 53.4153 92.0349 53.7505C92.0349 54.0598 92.1528 54.337 92.3886 54.5819C92.6244 54.8268 92.9476 54.9149 93.358 54.8462C93.8471 54.7688 94.3799 54.5862 94.9563 54.2983C95.5327 54.0104 96.0982 53.6409 96.6527 53.1897C97.2073 52.7386 97.5364 52.5557 98.3659 51.6C99.1954 50.6443 99.9768 49.5359 100.195 48.9C100.405 49.5359 101.049 50.7 101.842 51.6C102.634 52.5 102.989 52.7386 103.543 53.1897C104.098 53.6409 104.661 54.0104 105.233 54.2983C105.805 54.5862 106.34 54.7688 106.838 54.8462C107.257 54.9149 107.585 54.8268 107.821 54.5819C108.057 54.337 108.174 54.0598 108.174 53.7505C108.174 53.4153 108.074 53.1467 107.873 52.9448C107.672 52.7428 107.388 52.6118 107.022 52.5517C106.594 52.4915 106.144 52.3325 105.672 52.0747C105.201 51.8169 104.74 51.5011 104.29 51.1272C103.84 50.7534 103.439 50.3602 103.085 49.9477C102.731 49.5352 102.458 49.1442 102.266 48.7747C104.463 48.3 106.28 47.2894 106.902 46.5C107.289 46.0096 107.498 45.5219 107.716 45.0751C107.934 44.6282 108.043 44.1469 108.043 43.6313C108.043 42.7032 107.733 41.9341 107.113 41.3239C106.493 40.7137 105.712 40.4087 104.768 40.4087C104.253 40.4087 103.755 40.5096 103.275 40.7116C102.795 40.9136 102.36 41.1993 101.971 41.5688C101.583 41.9384 101.249 42.3809 100.969 42.8966L100.104 44.4L99.2269 42.8966C98.9475 42.3809 98.6112 41.9384 98.2182 41.5688C97.8252 41.1993 97.3929 40.9136 96.9213 40.7116C96.4497 40.5096 95.9475 40.4087 95.4148 40.4087C94.4716 40.4087 93.6899 40.7137 93.0698 41.3239C92.4498 41.9341 92.1397 42.7032 92.1397 43.6313C92.1397 44.1469 92.2489 44.6282 92.4672 45.0751C92.6856 45.5219 92.9869 45.9259 93.3711 46.2868C94.2373 47.1161 95.622 48.3 97.93 48.7747ZM96.9147 46.7509C97.4519 46.9399 98.0261 47.0344 98.6374 47.0344L98.9911 47.0345V46.6993C98.9911 46.1235 98.8994 45.5756 98.716 45.0557C98.5327 44.5358 98.2838 44.0761 97.9693 43.6765C97.6549 43.2769 97.2947 42.9632 96.8886 42.7354C96.4825 42.5077 96.048 42.3938 95.5851 42.3938C95.1484 42.3938 94.7991 42.5227 94.5371 42.7805C94.275 43.0384 94.1441 43.395 94.1441 43.8505C94.1441 44.2286 94.2641 44.6067 94.5043 44.9848C94.7445 45.3629 95.072 45.7046 95.4868 46.0096C95.9017 46.3147 96.3777 46.5618 96.9147 46.7509ZM101.192 47.0344H101.546C102.157 47.0344 102.733 46.9399 103.275 46.7509C103.816 46.5618 104.295 46.3147 104.709 46.0096C105.124 45.7046 105.45 45.3629 105.685 44.9848C105.921 44.6067 106.039 44.2286 106.039 43.8505C106.039 43.395 105.91 43.0384 105.653 42.7805C105.395 42.5227 105.043 42.3938 104.598 42.3938C104.144 42.3938 103.714 42.5077 103.308 42.7354C102.902 42.9632 102.539 43.2768 102.22 43.6765C101.902 44.0761 101.651 44.5358 101.467 45.0557C101.284 45.5756 101.192 46.1235 101.192 46.6993V47.0344Z" fill="#0068F6"/>
<rect x="45" y="93" width="111" height="47" rx="8" fill="#424242"/>
<rect x="45" y="63" width="111" height="22" rx="8" fill="#0068F6"/>
</g>
<mask id="mask1_203_3993" style="mask-type:alpha" maskUnits="userSpaceOnUse" x="0" y="0" width="200" height="201">
<path d="M200 0L0 201V0H200Z" fill="#C4C4C4"/>
</mask>
<g mask="url(#mask1_203_3993)">
<rect width="200" height="200" rx="48" fill="white"/>
<g opacity="0.1">
<circle cx="4" cy="4" r="3" fill="#91909A"/>
<circle cx="36" cy="4" r="3" fill="#91909A"/>
<circle cx="68" cy="4" r="3" fill="#91909A"/>
<circle cx="100" cy="4" r="3" fill="#91909A"/>
<circle cx="132" cy="4" r="3" fill="#91909A"/>
<circle cx="164" cy="4" r="3" fill="#91909A"/>
<circle cx="196" cy="4" r="3" fill="#91909A"/>
<circle cx="4" cy="36" r="3" fill="#91909A"/>
<circle cx="36" cy="36" r="3" fill="#91909A"/>
<circle cx="68" cy="36" r="3" fill="#91909A"/>
<circle cx="100" cy="36" r="3" fill="#91909A"/>
<circle cx="132" cy="36" r="3" fill="#91909A"/>
<circle cx="164" cy="36" r="3" fill="#91909A"/>
<circle cx="196" cy="36" r="3" fill="#91909A"/>
<circle cx="4" cy="68" r="3" fill="#91909A"/>
<circle cx="36" cy="68" r="3" fill="#91909A"/>
<circle cx="68" cy="68" r="3" fill="#91909A"/>
<circle cx="100" cy="68" r="3" fill="#91909A"/>
<circle cx="132" cy="68" r="3" fill="#91909A"/>
<circle cx="164" cy="68" r="3" fill="#91909A"/>
<circle cx="196" cy="68" r="3" fill="#91909A"/>
<circle cx="4" cy="100" r="3" fill="#91909A"/>
<circle cx="36" cy="100" r="3" fill="#91909A"/>
<circle cx="68" cy="100" r="3" fill="#91909A"/>
<circle cx="100" cy="100" r="3" fill="#91909A"/>
<circle cx="132" cy="100" r="3" fill="#91909A"/>
<circle cx="164" cy="100" r="3" fill="#91909A"/>
<circle cx="196" cy="100" r="3" fill="#91909A"/>
<circle cx="4" cy="132" r="3" fill="#91909A"/>
<circle cx="36" cy="132" r="3" fill="#91909A"/>
<circle cx="68" cy="132" r="3" fill="#91909A"/>
<circle cx="100" cy="132" r="3" fill="#91909A"/>
<circle cx="132" cy="132" r="3" fill="#91909A"/>
<circle cx="164" cy="132" r="3" fill="#91909A"/>
<circle cx="196" cy="132" r="3" fill="#91909A"/>
<circle cx="4" cy="164" r="3" fill="#91909A"/>
<circle cx="36" cy="164" r="3" fill="#91909A"/>
<circle cx="68" cy="164" r="3" fill="#91909A"/>
<circle cx="100" cy="164" r="3" fill="#91909A"/>
<circle cx="132" cy="164" r="3" fill="#91909A"/>
<circle cx="164" cy="164" r="3" fill="#91909A"/>
<circle cx="196" cy="164" r="3" fill="#91909A"/>
<circle cx="4" cy="196" r="3" fill="#91909A"/>
<circle cx="36" cy="196" r="3" fill="#91909A"/>
<circle cx="68" cy="196" r="3" fill="#91909A"/>
<circle cx="100" cy="196" r="3" fill="#91909A"/>
<circle cx="132" cy="196" r="3" fill="#91909A"/>
<circle cx="164" cy="196" r="3" fill="#91909A"/>
<circle cx="196" cy="196" r="3" fill="#91909A"/>
</g>
<g filter="url(#filter1_d_203_3993)">
<rect x="34" y="48" width="133" height="103" rx="16" fill="white"/>
<path fill-rule="evenodd" clip-rule="evenodd" d="M97.93 48.7747C97.7378 49.1442 97.465 49.5352 97.1113 49.9477C96.7575 50.3602 96.3558 50.7534 95.906 51.1272C95.4563 51.5011 94.9934 51.8169 94.5174 52.0747C94.0414 52.3325 93.5895 52.4915 93.1615 52.5517C92.8035 52.6118 92.5262 52.7428 92.3297 52.9448C92.1332 53.1467 92.0349 53.4153 92.0349 53.7505C92.0349 54.0598 92.1528 54.337 92.3886 54.5819C92.6244 54.8268 92.9476 54.9149 93.358 54.8462C93.8471 54.7688 94.3799 54.5862 94.9563 54.2983C95.5327 54.0104 96.0982 53.6409 96.6527 53.1897C97.2073 52.7386 97.5364 52.5557 98.3659 51.6C99.1954 50.6443 99.9768 49.5359 100.195 48.9C100.405 49.5359 101.049 50.7 101.842 51.6C102.634 52.5 102.989 52.7386 103.543 53.1897C104.098 53.6409 104.661 54.0104 105.233 54.2983C105.805 54.5862 106.34 54.7688 106.838 54.8462C107.257 54.9149 107.585 54.8268 107.821 54.5819C108.057 54.337 108.174 54.0598 108.174 53.7505C108.174 53.4153 108.074 53.1467 107.873 52.9448C107.672 52.7428 107.388 52.6118 107.022 52.5517C106.594 52.4915 106.144 52.3325 105.672 52.0747C105.201 51.8169 104.74 51.5011 104.29 51.1272C103.84 50.7534 103.439 50.3602 103.085 49.9477C102.731 49.5352 102.458 49.1442 102.266 48.7747C104.463 48.3 106.28 47.2894 106.902 46.5C107.289 46.0096 107.498 45.5219 107.716 45.0751C107.934 44.6282 108.043 44.1469 108.043 43.6313C108.043 42.7032 107.733 41.9341 107.113 41.3239C106.493 40.7137 105.712 40.4087 104.768 40.4087C104.253 40.4087 103.755 40.5096 103.275 40.7116C102.795 40.9136 102.36 41.1993 101.971 41.5688C101.583 41.9384 101.249 42.3809 100.969 42.8966L100.104 44.4L99.2269 42.8966C98.9475 42.3809 98.6112 41.9384 98.2182 41.5688C97.8252 41.1993 97.3929 40.9136 96.9213 40.7116C96.4497 40.5096 95.9475 40.4087 95.4148 40.4087C94.4716 40.4087 93.6899 40.7137 93.0698 41.3239C92.4498 41.9341 92.1397 42.7032 92.1397 43.6313C92.1397 44.1469 92.2489 44.6282 92.4672 45.0751C92.6856 45.5219 92.9869 45.9259 93.3711 46.2868C94.2373 47.1161 95.622 48.3 97.93 48.7747ZM96.9147 46.7509C97.4519 46.9399 98.0261 47.0344 98.6374 47.0344L98.9911 47.0345V46.6993C98.9911 46.1235 98.8994 45.5756 98.716 45.0557C98.5327 44.5358 98.2838 44.0761 97.9693 43.6765C97.6549 43.2769 97.2947 42.9632 96.8886 42.7354C96.4825 42.5077 96.048 42.3938 95.5851 42.3938C95.1484 42.3938 94.7991 42.5227 94.5371 42.7805C94.275 43.0384 94.1441 43.395 94.1441 43.8505C94.1441 44.2286 94.2641 44.6067 94.5043 44.9848C94.7445 45.3629 95.072 45.7046 95.4868 46.0096C95.9017 46.3147 96.3777 46.5618 96.9147 46.7509ZM101.192 47.0344H101.546C102.157 47.0344 102.733 46.9399 103.275 46.7509C103.816 46.5618 104.295 46.3147 104.709 46.0096C105.124 45.7046 105.45 45.3629 105.685 44.9848C105.921 44.6067 106.039 44.2286 106.039 43.8505C106.039 43.395 105.91 43.0384 105.653 42.7805C105.395 42.5227 105.043 42.3938 104.598 42.3938C104.144 42.3938 103.714 42.5077 103.308 42.7354C102.902 42.9632 102.539 43.2768 102.22 43.6765C101.902 44.0761 101.651 44.5358 101.467 45.0557C101.284 45.5756 101.192 46.1235 101.192 46.6993V47.0344Z" fill="#0068F6"/>
<rect x="45" y="93" width="111" height="47" rx="8" fill="#EEEEEE"/>
<rect x="45" y="63" width="111" height="22" rx="8" fill="#0068F6"/>
</g>
</g>
</g>
<defs>
<filter id="filter0_d_203_3993" x="2" y="20" width="197" height="179" filterUnits="userSpaceOnUse" color-interpolation-filters="sRGB">
<feFlood flood-opacity="0" result="BackgroundImageFix"/>
<feColorMatrix in="SourceAlpha" type="matrix" values="0 0 0 0 0 0 0 0 0 0 0 0 0 0 0 0 0 0 127 0" result="hardAlpha"/>
<feOffset dy="16"/>
<feGaussianBlur stdDeviation="16"/>
<feComposite in2="hardAlpha" operator="out"/>
<feColorMatrix type="matrix" values="0 0 0 0 0 0 0 0 0 0 0 0 0 0 0 0 0 0 0.3 0"/>
<feBlend mode="normal" in2="BackgroundImageFix" result="effect1_dropShadow_203_3993"/>
<feBlend mode="normal" in="SourceGraphic" in2="effect1_dropShadow_203_3993" result="shape"/>
</filter>
<filter id="filter1_d_203_3993" x="2" y="20" width="197" height="179" filterUnits="userSpaceOnUse" color-interpolation-filters="sRGB">
<feFlood flood-opacity="0" result="BackgroundImageFix"/>
<feColorMatrix in="SourceAlpha" type="matrix" values="0 0 0 0 0 0 0 0 0 0 0 0 0 0 0 0 0 0 127 0" result="hardAlpha"/>
<feOffset dy="16"/>
<feGaussianBlur stdDeviation="16"/>
<feComposite in2="hardAlpha" operator="out"/>
<feColorMatrix type="matrix" values="0 0 0 0 0 0 0 0 0 0 0 0 0 0 0 0 0 0 0.1 0"/>
<feBlend mode="normal" in2="BackgroundImageFix" result="effect1_dropShadow_203_3993"/>
<feBlend mode="normal" in="SourceGraphic" in2="effect1_dropShadow_203_3993" result="shape"/>
</filter>
</defs>
</svg>
