<svg width="121" height="92" viewBox="0 0 121 92" fill="none" xmlns="http://www.w3.org/2000/svg">
<path d="M99.2739 45.8247C99.2739 50.8195 99.2739 55.7949 99.2739 60.7703C99.2739 66.7369 100.17 67.6504 106.109 67.6504H110.743C112.095 67.5974 113.442 67.8259 114.7 68.3215C115.958 68.817 117.099 69.5688 118.05 70.5287C119 71.4887 119.74 72.6358 120.222 73.897C120.705 75.1582 120.918 76.5058 120.849 77.8539C120.849 79.7974 120.849 81.7409 120.849 83.5484C120.596 88.7181 117.675 91.5945 112.476 91.6334C102.117 91.6334 91.7576 91.75 81.3203 91.6334C71.9541 91.5168 62.5879 90.9726 53.2216 90.9532C44.9459 90.9532 36.6506 91.5945 28.3748 91.614C21.1506 91.614 13.9263 91.2252 6.70203 90.8754C2.34021 90.6616 0.21772 88.9319 0.100885 84.6173C-0.188681 80.3934 0.145932 76.15 1.09398 72.0233C1.54184 70.4102 4.98846 69.0108 7.32515 68.6805C11.2196 68.1363 15.1141 68.6805 19.0086 68.4667C19.5862 68.3807 20.1407 68.1799 20.639 67.8761C21.1374 67.5723 21.5696 67.1717 21.91 66.6981C25.0267 61.6645 26.5722 55.8191 26.3497 49.9061C26.3497 41.9571 26.155 33.9887 26.3497 26.0397C26.5444 20.0731 27.187 14.1065 27.9075 8.15935C28.3554 4.36949 31.802 1.9984 37.4879 1.57083C46.5426 0.871163 55.6362 -0.139465 64.7493 0.0160161C73.6263 0.396268 82.4782 1.22657 91.2707 2.50372C94.951 2.93129 97.1125 6.39075 97.5408 12.2213L99.2739 45.8247Z" fill="black"/>
<path d="M58.3596 67V27.576H50.8076V21.432H72.4396V27.576H64.8876V67H58.3596Z" fill="white"/>
</svg>
